<!-- echocardio-heart.svg (Figma-safe, with black square background) -->
<svg xmlns="http://www.w3.org/2000/svg" viewBox="0 0 64 64">
  <!-- Background square so the heart pops on light tab UIs -->
  <rect width="64" height="64" fill="#0b0b0b"></rect>

  <!-- Heart clip path -->
  <clipPath id="heart">
    <path d="M32 54 C32 54 8 39 8 26
             C8 18 14 12 21 12
             C26 12 29 15 32 18
             C35 15 38 12 43 12
             C50 12 56 18 56 26
             C56 39 32 54 32 54Z"></path>
  </clipPath>

  <!-- Blue→neon green gradient for inner bars -->
  <linearGradient id="g" x1="0" y1="0" x2="1" y2="1">
    <stop offset="0" stop-color="#3a7bf0"></stop>
    <stop offset="1" stop-color="#39FF14"></stop>
  </linearGradient>

  <!-- Ultrasound bars clipped to heart -->
  <g clip-path="url(#heart)">
    <g fill="url(#g)">
      <rect x="0" y="8" width="64" height="3" rx="1.5"></rect>
      <rect x="0" y="14" width="64" height="3" rx="1.5"></rect>
      <rect x="0" y="20" width="64" height="3" rx="1.5"></rect>
      <rect x="0" y="26" width="64" height="3" rx="1.5"></rect>
      <rect x="0" y="32" width="64" height="3" rx="1.5"></rect>
      <rect x="0" y="38" width="64" height="3" rx="1.5"></rect>
      <rect x="0" y="44" width="64" height="3" rx="1.5"></rect>
      <rect x="0" y="50" width="64" height="3" rx="1.5"></rect>
    </g>
    <!-- EKG / sound wave accent -->
    <path d="M-4 32 C6 32,10 26,14 26 S20 40,24 40 S28 24,32 24 S40 40,44 40 S50 26,54 26 S62 32,68 32" fill="none" stroke="#ffffff" stroke-width="1.8" stroke-linecap="round" opacity=".9"></path>
  </g>

  <!-- Neon green outline (underlay for glow effect) -->
  <path d="M32 54 C32 54 8 39 8 26
           C8 18 14 12 21 12
           C26 12 29 15 32 18
           C35 15 38 12 43 12
           C50 12 56 18 56 26
           C56 39 32 54 32 54Z" fill="none" stroke="#39FF14" stroke-width="4.2" opacity=".6" stroke-linejoin="round"></path>
  <!-- Crisp outline on top -->
  <path d="M32 54 C32 54 8 39 8 26
           C8 18 14 12 21 12
           C26 12 29 15 32 18
           C35 15 38 12 43 12
           C50 12 56 18 56 26
           C56 39 32 54 32 54Z" fill="none" stroke="#39FF14" stroke-width="2" stroke-linejoin="round"></path>
</svg>
